Coordinates
version=1
nRows=6
nColumns=63
inDegrees=yes

Units are S.I. units (second, meters, Newtons, ...)
If the header above contains a line with 'inDegrees', this indicates whether rotational values are in degrees (yes) or radians (no).

endheader
time	pelvis_tilt	pelvis_list	pelvis_rotation	pelvis_tx	pelvis_ty	pelvis_tz	hip_flexion_r	hip_adduction_r	hip_rotation_r	knee_angle_r	knee_angle_r_beta	ankle_angle_r	subtalar_angle_r	mtp_angle_r	hip_flexion_l	hip_adduction_l	hip_rotation_l	knee_angle_l	knee_angle_l_beta	ankle_angle_l	subtalar_angle_l	mtp_angle_l	L5_S1_Flex_Ext	L5_S1_Lat_Bending	L5_S1_axial_rotation	L4_L5_Flex_Ext	L4_L5_Lat_Bending	L4_L5_axial_rotation	L3_L4_Flex_Ext	L3_L4_Lat_Bending	L3_L4_axial_rotation	L2_L3_Flex_Ext	L2_L3_Lat_Bending	L2_L3_axial_rotation	L1_L2_Flex_Ext	L1_L2_Lat_Bending	L1_L2_axial_rotation	L1_T12_Flex_Ext	L1_T12_Lat_Bending	L1_T12_axial_rotation	Abs_r3	Abs_r2	Abs_r1	Abs_t1	Abs_t2	neck_flexion	neck_bending	neck_rotation	arm_flex_r	arm_add_r	arm_rot_r	elbow_flex_r	pro_sup_r	wrist_flex_r	wrist_dev_r	arm_flex_l	arm_add_l	arm_rot_l	elbow_flex_l	pro_sup_l	wrist_flex_l	wrist_dev_l
      0.00000000	     -1.99379688	     -4.81136455	     94.22168072	      0.15541981	      0.88972237	      0.75149701	      5.38012097	     -2.72388377	    -18.76455861	     13.14428405	      0.22941103	     26.29822759	     18.23735894	      0.00000000	      8.18177997	      1.71906966	      9.64144540	     15.55808867	      0.27153987	     23.04732467	    -11.48402429	      0.00000000	      0.21542393	     -0.01298226	      0.32105479	      0.40006378	     -0.01726640	      0.34112071	      0.35391998	     -0.03156506	      0.34112071	      0.24620801	     -0.03156506	      0.28092294	      0.20004266	     -0.02647342	      0.26085702	      0.12309323	     -0.02010952	      0.24079109	      1.53875160	     -0.14685791	      1.78561042	      0.00000000	      0.00000000	     26.36590385	      4.66755574	     -3.27601604	     16.99151680	     -4.85851117	     64.15094738	     39.66468864	     26.00872248	    -30.17031941	     23.90553233	     17.37186935	     -2.22661542	     57.71714854	     34.17005082	     80.47762960	     -2.97157620	     11.56028336
      0.01694915	     -2.24667206	     -4.31355759	     93.52066677	      0.15646709	      0.89029273	      0.75051685	      4.87303758	     -2.77828981	    -17.26248735	     12.68997963	      0.22148193	     27.27176963	     18.35720532	      0.00000000	      7.44270677	      1.76823975	      7.85672518	     15.26912007	      0.26649642	     23.28869377	    -10.41763881	      0.00000000	      0.18924818	     -0.03928812	      0.57908634	      0.35145280	     -0.05225320	      0.61527923	      0.31091584	     -0.09552513	      0.61527923	      0.21629175	     -0.09552513	      0.50670055	      0.17573586	     -0.08011633	      0.47050765	      0.10813641	     -0.06085730	      0.43431475	      1.35178083	     -0.44443506	      3.22070448	      0.00000000	      0.00000000	     25.86366948	      3.93809897	     -4.79746958	     16.44321145	     -5.26002064	     64.78037283	     40.70716174	     18.95291788	    -31.29453561	     21.09295086	     17.90960817	     -2.27924100	     60.07351227	     33.60188549	     81.00369729	     -2.47916875	     12.12142096
      0.03389831	     -2.41960228	     -3.93745446	     92.89229040	      0.15723404	      0.89065232	      0.74968437	      4.49983704	     -2.82119560	    -16.08817591	     12.38354912	      0.21613371	     27.94151433	     18.41898926	      0.00000000	      6.89337006	      1.73598522	      5.84285923	     15.06042888	      0.26285407	     23.88478352	     -8.66290250	      0.00000000	      0.17059810	     -0.05214060	      0.75768674	      0.31681773	     -0.06934700	      0.80504217	      0.28027561	     -0.12677466	      0.80504217	      0.19497657	     -0.12677466	      0.66297590	      0.15841739	     -0.10632512	      0.61562048	      0.09747975	     -0.08076580	      0.56826506	      1.21856515	     -0.58982494	      4.21402637	      0.00000000	      0.00000000	     25.42740203	      3.46118925	     -5.57491634	     15.97235743	     -5.62851077	     65.26122214	     41.76073280	     12.78884180	    -32.82790548	     18.67470144	     18.27475848	     -2.51645554	     61.49157639	     33.62512171	     81.79053666	     -1.65062640	     12.56238942
      0.05084746	     -2.52535573	     -3.65772926	     92.40684213	      0.15761065	      0.89081822	      0.74901177	      4.22144798	     -2.85793278	    -15.20603949	     12.19074374	      0.21276862	     28.39927866	     18.44126397	      0.00000000	      6.48828900	      1.70023166	      4.28044883	     14.90565686	      0.26015279	     24.56082276	     -7.14816874	      0.00000000	      0.15556989	     -0.05490103	      0.85681373	      0.28890884	     -0.07301837	      0.91036459	      0.25558577	     -0.13348637	      0.91036459	      0.17780083	     -0.13348637	      0.74971201	      0.14446220	     -0.11195418	      0.69616116	      0.08889263	     -0.08504170	      0.64261030	      1.11122016	     -0.62105145	      4.76534092	      0.00000000	      0.00000000	     25.11606241	      3.31168423	     -5.77825352	     15.47384726	     -5.93263075	     65.18804939	     42.76398763	      8.16984057	    -34.52701271	     16.96279161	     18.44236215	     -2.84167901	     61.78900983	     34.03885864	     83.06606650	     -0.45233894	     12.94539634
      0.06779661	     -2.57948378	     -3.45935837	     91.85118988	      0.15806662	      0.89085255	      0.74841857	      4.04728442	     -2.86301285	    -14.39162364	     12.08468446	      0.21091753	     28.63512443	     18.45826486	      0.00000000	      6.14149197	      1.63761284	      2.91525786	     14.67998197	      0.25621402	     25.16261010	     -5.93451742	      0.00000000	      0.14479779	     -0.04835309	      0.94855865	      0.26890398	     -0.06430961	      1.00784357	      0.23788830	     -0.11756571	      1.00784357	      0.16548940	     -0.11756571	      0.82998882	      0.13445923	     -0.09860163	      0.77070390	      0.08273746	     -0.07489894	      0.71141899	      1.03427617	     -0.54697985	      5.27559864	      0.00000000	      0.00000000	     24.91821065	      3.14588674	     -5.46167121	     14.76605489	     -6.19253218	     64.09027857	     43.72563600	      5.89814041	    -36.45134529	     16.24547748	     18.60998310	     -3.24174201	     61.98129366	     34.64932310	     84.19185572	      0.76524457	     12.86216261
      0.08474576	     -2.63458718	     -3.34652252	     91.68033178	      0.15805921	      0.89073032	      0.74814987	      3.95722037	     -2.92758224	    -14.13538718	     12.10646506	      0.21129768	     28.91616422	     18.49809493	      0.00000000	      5.99644484	      1.62515298	      2.01997488	     14.63392069	      0.25541010	     25.82440345	     -4.76895964	      0.00000000	      0.13903293	     -0.04535914	      0.93091526	      0.25819805	     -0.06032765	      0.98909747	      0.22841720	     -0.11028620	      0.98909747	      0.15890074	     -0.11028620	      0.81455086	      0.12910598	     -0.09249635	      0.75636865	      0.07944342	     -0.07026130	      0.69818645	      0.99309832	     -0.51311162	      5.17747142	      0.00000000	      0.00000000	     24.72543389	      3.33506376	     -4.85287019	     14.54259149	     -6.39588492	     63.82180451	     44.19502940	      5.05605021	    -37.17747872	     17.21235602	     18.90702125	     -3.83859906	     62.52631019	     35.53358387	     84.45006026	      1.85665711	     13.02732559
